<svg id="_0472_profiling" xmlns="http://www.w3.org/2000/svg" viewBox="0 0 500 500" data-imageid="profiling-80" imageName="Profiling" class="illustrations_image" style="width: 151px;"><defs><style>.cls-1_profiling-80,.cls-2_profiling-80,.cls-3_profiling-80{fill:#fff;}.cls-4_profiling-80{fill:none;}.cls-4_profiling-80,.cls-5_profiling-80{opacity:.39;}.cls-6_profiling-80{fill:#f4a28c;}.cls-7_profiling-80,.cls-5_profiling-80{fill:#a5a5a5;}.cls-8_profiling-80{opacity:.03;}.cls-8_profiling-80,.cls-9_profiling-80{fill:#000001;}.cls-2_profiling-80{opacity:.48;}.cls-10_profiling-80{fill:#e6e6e6;}.cls-11_profiling-80{fill:#ce8172;opacity:.31;}.cls-12_profiling-80{opacity:.58;}.cls-12_profiling-80,.cls-13_profiling-80,.cls-14_profiling-80{fill:#68e1fd;}.cls-3_profiling-80{opacity:.2;}.cls-15_profiling-80{fill:#24285b;}.cls-9_profiling-80{opacity:.08;}.cls-13_profiling-80{opacity:.73;}.cls-16_profiling-80{fill:#ffd200;}</style></defs><g id="screen_profiling-80"><rect class="cls-10_profiling-80" x="111.92" y="61.16" width="343.49" height="284.41"/><rect class="cls-1_profiling-80" x="141" y="105.79" width="150.24" height="183.59"/><g class="cls-4_profiling-80"><rect class="cls-7_profiling-80" x="224.01" y="134.54" width="14.55" height="4.59"/><rect class="cls-7_profiling-80" x="243.51" y="134.54" width="36.38" height="4.59"/><rect class="cls-7_profiling-80" x="224.01" y="149.39" width="36.24" height="4.59"/><rect class="cls-7_profiling-80" x="264.9" y="149.39" width="14.99" height="4.59"/><rect class="cls-7_profiling-80" x="242.2" y="164.23" width="37.69" height="4.59"/><rect class="cls-7_profiling-80" x="224.01" y="164.23" width="14.12" height="4.59"/><rect class="cls-7_profiling-80" x="224.01" y="179.07" width="43.22" height="4.59"/></g><rect class="cls-15_profiling-80" x="153.28" y="134.54" width="57.19" height="63.04"/><rect class="cls-14_profiling-80 targetColor" x="141" y="105.79" width="150.24" height="16.82" style="fill: rgb(31, 58, 64);"/><rect class="cls-5_profiling-80" x="230.7" y="213.08" width="49.19" height="4.24"/><rect class="cls-5_profiling-80" x="153.28" y="213.08" width="71.6" height="4.24"/><rect class="cls-5_profiling-80" x="244.96" y="229.35" width="34.93" height="4.24"/><rect class="cls-5_profiling-80" x="153.28" y="229.35" width="84.69" height="4.24"/><rect class="cls-5_profiling-80" x="153.28" y="245.61" width="43.08" height="4.24"/><rect class="cls-5_profiling-80" x="208" y="245.61" width="71.89" height="4.24"/><rect class="cls-5_profiling-80" x="153.28" y="261.88" width="110.31" height="4.24"/><path class="cls-6_profiling-80" d="m190.6,152.17s2.11,10.15,1.19,17.18c-.37,2.85-3.03,4.89-5.87,4.47-3.53-.51-8.16-2.23-9.95-7.53l-4.14-8.63s-2.41-5.5,2.9-10.36c5.31-4.86,14.9-1.38,15.87,4.87Z"/><polygon class="cls-6_profiling-80" points="172.57 159.23 171.23 193.17 189.99 192.58 183.43 168.11 172.57 159.23"/><path class="cls-16_profiling-80" d="m188.1,152.9c-1.79.31-5.09.69-9.58.4,0,0,3.75,4.1,1.12,9.42s-8.11,3.79-8.11,3.79l-1.4-13.24c-.53-3.85,1.07-7.69,4.2-9.98,1.28-.94,2.71-1.89,4.16-2.68,3.63-1.98,9.5-.1,12.61-3.08,1.36-1.3,3.64-.66,4.13,1.16,1.07,3.95,1.1,10.37-4.08,13.21-.95.52-1.99.82-3.06,1Z"/><path class="cls-6_profiling-80" d="m180.7,162.28s-.55-3.95-3.49-3.3c-2.94.66-2.19,6.38,1.92,6.43l1.56-3.14Z"/><path class="cls-6_profiling-80" d="m191.6,158.63l3.34,3.63c.82.9.44,2.34-.72,2.71l-3.85,1.21,1.23-7.54Z"/><path class="cls-11_profiling-80" d="m185.1,173.41s-3.52-.29-6.45-2.88c0,0,1,6.14,8.5,11.43l-2.05-8.55Z"/><path class="cls-14_profiling-80 targetColor" d="m173.42,187.88h16.92c3.14,0,5.69,2.55,5.69,5.69v4.06h-28.3v-4.06c0-3.14,2.55-5.69,5.69-5.69Z" style="fill: rgb(31, 58, 64);"/><rect class="cls-9_profiling-80" x="319.36" y="149.85" width="122.59" height="149.81"/><rect class="cls-1_profiling-80" x="307.46" y="134.98" width="122.59" height="149.81"/><g class="cls-4_profiling-80"><rect class="cls-7_profiling-80" x="375.2" y="158.45" width="11.87" height="3.74"/><rect class="cls-7_profiling-80" x="391.11" y="158.45" width="29.69" height="3.74"/><rect class="cls-7_profiling-80" x="375.2" y="170.56" width="29.57" height="3.74"/><rect class="cls-7_profiling-80" x="408.56" y="170.56" width="12.23" height="3.74"/><rect class="cls-7_profiling-80" x="390.04" y="182.67" width="30.75" height="3.74"/><rect class="cls-7_profiling-80" x="375.2" y="182.67" width="11.52" height="3.74"/><rect class="cls-7_profiling-80" x="375.2" y="194.78" width="35.27" height="3.74"/></g><rect class="cls-15_profiling-80" x="317.49" y="158.45" width="46.67" height="51.44"/><rect class="cls-14_profiling-80 targetColor" x="307.46" y="134.98" width="122.59" height="13.73" style="fill: rgb(31, 58, 64);"/><rect class="cls-5_profiling-80" x="380.66" y="222.53" width="40.13" height="3.46"/><rect class="cls-5_profiling-80" x="317.49" y="222.53" width="58.42" height="3.46"/><rect class="cls-5_profiling-80" x="392.29" y="235.8" width="28.5" height="3.46"/><rect class="cls-5_profiling-80" x="317.49" y="235.8" width="69.11" height="3.46"/><rect class="cls-5_profiling-80" x="317.49" y="249.08" width="35.15" height="3.46"/><rect class="cls-5_profiling-80" x="362.13" y="249.08" width="58.66" height="3.46"/><rect class="cls-5_profiling-80" x="317.49" y="262.35" width="90.01" height="3.46"/><path class="cls-6_profiling-80" d="m350.98,172.25s1.82,8.74,1.03,14.79c-.32,2.45-2.61,4.21-5.06,3.85-3.04-.44-7.03-1.92-8.57-6.49l-3.57-7.43s-2.07-4.73,2.5-8.92c4.57-4.19,12.83-1.19,13.67,4.19Z"/><polygon class="cls-6_profiling-80" points="335.46 178.33 334.3 207.57 350.46 207.06 344.82 185.99 335.46 178.33"/><path class="cls-6_profiling-80" d="m351.84,177.82l2.88,3.12c.71.77.38,2.02-.62,2.33l-3.31,1.04,1.06-6.5Z"/><path class="cls-11_profiling-80" d="m346.25,190.55s-3.03-.25-5.56-2.48c0,0,.86,5.29,7.32,9.84l-1.76-7.36Z"/><path class="cls-16_profiling-80" d="m350.46,168.37s-.02,9.91-9.2,10.15c.15,0-.33,5.48-.36,5.75-.48,3.81.51,7.7.43,11.59-.01.67-.05,1.37-.41,1.93-.44.69-1.25,1.02-2.03,1.28-4.41,1.45-9.2,1.74-13.74.81-.86-.17-1.74-.41-2.39-1-1.22-1.1-1.19-3.01-.93-4.63.35-2.22.95-4.39,1.79-6.47.74-1.87,1.88-3.57,2.61-5.41,1.67-4.22,2.7-8.49,3.3-12.99.18-1.34.34-2.7.83-3.96.71-1.81,2.06-3.27,3.52-4.52,1.53-1.32,3.28-1.42,5.28-1.45,9.75-.17,12.1,4.11,11.31,8.93Z"/><path class="cls-6_profiling-80" d="m342.46,180.96s-.47-3.41-3-2.84c-2.53.57-1.88,5.49,1.66,5.54l1.35-2.7Z"/><path class="cls-14_profiling-80 targetColor" d="m329.58,201.63h24.65v2.76c0,3.17-2.57,5.74-5.74,5.74h-13.18c-3.17,0-5.74-2.57-5.74-5.74v-2.76h0Z" transform="translate(683.82 411.75) rotate(-180)" style="fill: rgb(31, 58, 64);"/><path class="cls-9_profiling-80" d="m105.65,201.02c1.15-.49,2.32-.91,3.51-1.27,5.76-1.74,11.85-2.12,17.87-2.28,9.66-.27,20.74.13,29.92,3.55,8.71,3.24,13.84,11.28,16.97,19.64.98,2.62,1.42,4.48,4.7,4.02,10.8-1.51,21.19-5.94,29.75-12.7,7.77-6.14,16.24-6.83,25.84-9.27.76-.19,0-7.13.59-7.63,38.26-32.14,38.74-7.05,32.43,0-3.23,3.6-11.96,18.12-14.47,22.26-2.51,4.13-14.78,12.02-19.43,18.48-8.71,12.09-18.75,12.36-31.55,19.99-1.85,1.1-14.13.68-15.01,2.64-2.32,5.15.32,78.68.39,87.13h-75.22c0-42.89-1.32-69.27-10.29-92.33-4.82-12.39-16.11-30.74-7.16-43.56,2.74-3.92,6.76-6.77,11.19-8.65Z"/><rect class="cls-7_profiling-80" x="111.92" y="30.37" width="343.49" height="30.79"/><circle class="cls-1_profiling-80" cx="133.8" cy="45.76" r="5.61"/><circle class="cls-15_profiling-80" cx="150.5" cy="45.76" r="5.61"/><circle class="cls-16_profiling-80" cx="166.24" cy="45.76" r="5.61"/><rect class="cls-2_profiling-80" x="310.53" y="105.79" width="119.53" height="13.16"/></g><ellipse id="sd_profiling-80" class="cls-8_profiling-80" cx="260.24" cy="437.82" rx="219.4" ry="31.81"/><g id="plant_profiling-80"><path class="cls-12_profiling-80 targetColor" d="m439.72,415.56s-15.54-4.25-18.93-18.71c0,0,24.08-4.87,24.77,19.99l-5.84-1.28Z" style="fill: rgb(31, 58, 64);"/><path class="cls-13_profiling-80 targetColor" d="m441.62,414.02s-10.86-17.17-1.3-33.22c0,0,18.31,11.63,10.18,33.26l-8.87-.04Z" style="fill: rgb(31, 58, 64);"/><path class="cls-14_profiling-80 targetColor" d="m444.42,414.03s5.74-18.13,23.08-21.57c0,0,3.25,11.77-11.23,21.62l-11.85-.05Z" style="fill: rgb(31, 58, 64);"/><polygon class="cls-15_profiling-80" points="433.15 413.62 436.3 435.18 456.14 435.26 459.07 413.73 433.15 413.62"/></g><g id="person_profiling-80"><path class="cls-6_profiling-80" d="m41.81,335.18s1.47,21.64,11.73,16.02c10.26-5.62-2.59-16.02-2.59-16.02h-9.14Z"/><path class="cls-14_profiling-80 targetColor" d="m73.46,194.49S.76,246.18,40.1,335.18h10.85s-5.69-64.57,22.52-95.14c28.21-30.57,0-45.54,0-45.54Z" style="fill: rgb(31, 58, 64);"/><path class="cls-3_profiling-80" d="m73.46,194.49S.76,246.18,40.1,335.18h10.85s-5.69-64.57,22.52-95.14c28.21-30.57,0-45.54,0-45.54Z"/><polygon class="cls-6_profiling-80" points="93.31 166.59 99.5 185.16 84.8 194.49 79.51 162.31 93.31 166.59"/><path class="cls-6_profiling-80" d="m75.21,151.09c2.48-6.06,10.55-7.3,15.04-2.52,4.92,5.25,10.84,13.6,4.14,18.14-10.26,6.95-19.68-6.04-19.68-6.04,0,0-1.38-4.98.51-9.58Z"/><path class="cls-6_profiling-80" d="m84.01,155.75s-3.35-2.8-4.86,1.18c-1.51,3.97,4.39,5.89,6.16,3.89s-1.3-5.06-1.3-5.06Z"/><rect class="cls-16_profiling-80" x="25.66" y="288.77" width="74.03" height="51.61" transform="translate(-77.24 25.94) rotate(-14.59)"/><polygon class="cls-9_profiling-80" points="57.21 289.34 68.7 323.17 68.08 339.84 84.58 335.65 91.92 305.59 71.93 285.5 57.21 289.34"/><path class="cls-14_profiling-80 targetColor" d="m67.65,203.6c4.44-9.97,13.11-17.43,23.56-20.57,19.96-6,56.72.56,67.93,19.24,15.34,25.57-7.12,106.78-7.12,106.78l-67.09,5.21s-36.91-66.57-17.28-110.67Z" style="fill: rgb(31, 58, 64);"/><polygon class="cls-15_profiling-80" points="152.02 309.06 143.2 424.41 129.24 424.41 116.79 334.79 85.94 314.27 152.02 309.06"/><polygon class="cls-15_profiling-80" points="85.94 314.27 66.69 424.41 81.65 424.41 113.96 332.9 85.94 314.27"/><path class="cls-9_profiling-80" d="m97.01,181.28s-31.38,101.08,59.24,107.78l-4.23,20-67.09,5.21s-23.64-37.12-22.64-89.26c0,0,.57-25.78,18.72-37.18,0,0,6.93-5.1,16-6.55Z"/><path class="cls-14_profiling-80 targetColor" d="m70.2,424.17l-9.01,6.64c-1.54,1.13-.74,3.57,1.17,3.57h15.1c1.09,0,1.98-.89,1.98-1.98v-8.23h-9.24Z" style="fill: rgb(31, 58, 64);"/><path class="cls-14_profiling-80 targetColor" d="m141.45,424.17l8.48,6.63c1.5,1.17.67,3.58-1.23,3.58h-10.75c-3.17,0-5.74-2.57-5.74-5.74v-4.47h9.24Z" style="fill: rgb(31, 58, 64);"/><path class="cls-15_profiling-80" d="m75.59,164.65s3.28,5.93,8.68,4.1c5.41-1.83,1.52-14.64,1.52-14.64,0,0,6.55-9.44,5.6-16.93-.52-4.1-6.09-4.72-7.98-1.04-.96,1.87-2.82,3.49-6.29,3.88-9.22,1.02-17.67,15.58-1.54,24.63Z"/><path class="cls-14_profiling-80 targetColor" d="m140.5,187.44s43.87,24.66,57.55,24.66,47.77-25.72,47.77-25.72l7.21,15.03s-28.96,45.15-54.86,41.73-65.96-26.09-65.96-26.09l8.29-29.6Z" style="fill: rgb(31, 58, 64);"/><path class="cls-6_profiling-80" d="m245.82,186.37s6.39-13.15,8.51-12.99c2.12.16,1.3,4.4,1.3,4.4,0,0,6.84-7.66,8.8-6.52,1.95,1.14,2.12,18.25-11.4,30.14l-7.21-15.03Z"/></g></svg>