<svg id="_0095_profile_analysis" xmlns="http://www.w3.org/2000/svg" viewBox="0 0 500 500" data-imageid="profile-analysis-42" imageName="Profile Analysis" class="illustrations_image" style="width: 151px;"><defs><style>.cls-1_profile-analysis-42{fill:#fff;}.cls-2_profile-analysis-42{opacity:.39;}.cls-2_profile-analysis-42,.cls-3_profile-analysis-42,.cls-4_profile-analysis-42{fill:none;}.cls-5_profile-analysis-42{fill:#f4a28c;}.cls-6_profile-analysis-42{fill:#a5a5a5;}.cls-7_profile-analysis-42{fill:#ce8172;}.cls-8_profile-analysis-42{fill:#e6e6e6;}.cls-3_profile-analysis-42{opacity:.08;}.cls-4_profile-analysis-42{opacity:.31;}.cls-9_profile-analysis-42{fill:#24285b;}.cls-10_profile-analysis-42{fill:#000001;}.cls-11_profile-analysis-42{fill:#ffd200;}.cls-12_profile-analysis-42{fill:#68e1fd;}</style></defs><g id="screen_profile-analysis-42"><rect class="cls-8_profile-analysis-42" x="73.4" y="93.77" width="353.26" height="326.44"/><circle class="cls-9_profile-analysis-42" cx="106.43" cy="124.95" r="8.63"/><circle class="cls-12_profile-analysis-42 targetColor" cx="132.11" cy="124.95" r="8.63" style="fill: rgb(31, 58, 64);"/><circle class="cls-11_profile-analysis-42" cx="156.3" cy="124.95" r="8.63"/><g class="cls-3_profile-analysis-42"><path class="cls-10_profile-analysis-42" d="m268.14,186.08s18.36-3.83,9.27,28.63c-9.09,32.47,1.25,65.06,26.95,70.08,25.7,5.02,62.68,18.33,68.95,58.69,6.27,40.36-25.16,76.47-25.16,76.47h-117.13l11.92-200s-2.88-38.56,25.2-33.87Z"/></g><path class="cls-5_profile-analysis-42" d="m259.68,197.18s.6,13.16-1.96,21.8c-1.04,3.5-4.78,5.52-8.27,4.43-4.33-1.35-9.79-4.44-10.97-11.46l-3.46-11.66s-1.91-7.38,5.73-12.42c7.64-5.03,18.97,1.27,18.94,9.3Z"/><polygon class="cls-5_profile-analysis-42" points="235.92 206.25 231.03 249.15 254.87 250.16 248.86 218.54 235.92 206.25"/><path class="cls-9_profile-analysis-42" d="m256.39,197.59c-2.3.03-6.52-.16-12.1-1.43,0,0,3.88,5.9-.49,12.05-4.37,6.14-10.94,3.12-10.94,3.12l.91-16.9c.11-4.93,2.89-9.43,7.28-11.68,1.8-.92,3.78-1.82,5.76-2.53,4.95-1.75,11.95,1.79,16.45-1.32,1.97-1.36,4.7-.1,4.95,2.29.55,5.18-.7,13.23-7.78,15.76-1.3.46-2.67.63-4.04.64Z"/><path class="cls-5_profile-analysis-42" d="m245.22,207.87s.11-5.07-3.71-4.84c-3.82.23-4.03,7.56,1.12,8.46l2.59-3.62Z"/><path class="cls-5_profile-analysis-42" d="m259.63,205.49l3.46,5.22c.85,1.29.08,3.03-1.45,3.25l-5.07.74,3.07-9.22Z"/><g class="cls-4_profile-analysis-42"><path class="cls-7_profile-analysis-42" d="m249.44,223.41s-5.4-3.63-9.52-6.4c0,0,.34,7.97,10.67,13.39l-1.14-6.99Z"/></g><path class="cls-12_profile-analysis-42 targetColor" d="m153.22,301.74c1.34-28.64,24.4-51.5,53.05-52.53,34.07-1.22,66.88-7.6,102.18,11.13,50.48,26.8-5.38,159.6-5.38,159.6l-116.59,1.4s-36.43-51.98-33.26-119.61Z" style="fill: rgb(31, 58, 64);"/><g class="cls-3_profile-analysis-42"><rect class="cls-10_profile-analysis-42" x="330.06" y="233.98" width="96.6" height="18.4"/></g><path class="cls-12_profile-analysis-42 targetColor" d="m308.45,260.34s61.09,32.49,48.86,106.77c-12.22,74.28-179.59-8.46-179.59-8.46l6.58-21.67s77.1,25.43,122.23,19.79c0,0-58.24-90.36,1.91-96.43Z" style="fill: rgb(31, 58, 64);"/><g class="cls-3_profile-analysis-42"><path class="cls-10_profile-analysis-42" d="m210.4,279.64s26.85,21.6,13.08,57.8c-13.77,36.2,43.1,59.16,87.77,60.61l-8.19,21.89-116.59,1.4s-11.05-20.11-15.3-28.5c-4.24-8.39-21.69-117.87,39.22-113.2Z"/></g><g class="cls-3_profile-analysis-42"><path class="cls-10_profile-analysis-42" d="m237.26,382.97s54.44-41.16,96.89-36.52c0,0,10.62,16.39-12.72,21.56-23.34,5.17-49.99,24.84-49.99,24.84l-34.19-9.88Z"/></g><g class="cls-2_profile-analysis-42"><path class="cls-1_profile-analysis-42" d="m308.45,260.34s61.09,32.49,48.86,106.77c-12.22,74.28-179.59-8.46-179.59-8.46l6.58-21.67s77.1,25.43,122.23,19.79c0,0-58.24-90.36,1.91-96.43Z"/></g><path class="cls-12_profile-analysis-42 targetColor" d="m183.36,255.12s-61.09,32.49-48.86,106.77c12.22,74.28,179.59-8.46,179.59-8.46l-6.58-21.67s-77.1,25.43-122.23,19.79c0,0,58.24-90.36-1.91-96.43Z" style="fill: rgb(31, 58, 64);"/><g class="cls-2_profile-analysis-42"><path class="cls-1_profile-analysis-42" d="m183.36,255.12s-61.09,32.49-48.86,106.77c12.22,74.28,179.59-8.46,179.59-8.46l-6.58-21.67s-77.1,25.43-122.23,19.79c0,0,58.24-90.36-1.91-96.43Z"/></g><path class="cls-5_profile-analysis-42" d="m308.53,335.13s19.35-6.46,24.99,6.39c5.64,12.85-19.43,11.91-19.43,11.91l-5.56-18.3Z"/><path class="cls-12_profile-analysis-42 targetColor" d="m220.99,248.44s-2.34-10.2,7.53-10.67c9.87-.47,35.41-7.53,39.8,9.4l-47.33,1.27Z" style="fill: rgb(31, 58, 64);"/><g class="cls-3_profile-analysis-42"><rect class="cls-10_profile-analysis-42" x="73.5" y="212.35" width="70.75" height="75.42"/></g><g class="cls-2_profile-analysis-42"><path class="cls-1_profile-analysis-42" d="m220.99,248.44s-2.34-10.2,7.53-10.67c9.87-.47,35.41-7.53,39.8,9.4l-47.33,1.27Z"/></g><g class="cls-3_profile-analysis-42"><rect class="cls-10_profile-analysis-42" x="111.19" y="376.81" width="17.12" height="43.4"/></g><g class="cls-3_profile-analysis-42"><rect class="cls-10_profile-analysis-42" x="187.65" y="116.33" width="142.41" height="17.26"/></g></g><g id="check_profile-analysis-42"><rect class="cls-9_profile-analysis-42" x="389.52" y="336.87" width="74.28" height="54.23"/><path class="cls-1_profile-analysis-42" d="m421.79,374.54s-.06,0-.09,0c-.64-.03-1.23-.33-1.63-.84l-7.36-9.48c-.74-.95-.57-2.32.39-3.06.95-.74,2.32-.56,3.06.39l5.79,7.45,14.28-15.42c.81-.88,2.2-.94,3.08-.12.88.82.94,2.2.12,3.08l-16.02,17.3c-.41.44-.99.7-1.6.7Z"/></g><g id="stats_profile-analysis-42"><rect class="cls-9_profile-analysis-42" x="330.06" y="70.53" width="143.55" height="166.41"/><path class="cls-1_profile-analysis-42" d="m403.39,181.19c-24.1,0-43.71-19.61-43.71-43.71s19.61-43.71,43.71-43.71,43.71,19.61,43.71,43.71-19.61,43.71-43.71,43.71Zm0-75.65c-17.61,0-31.94,14.33-31.94,31.94s14.33,31.94,31.94,31.94,31.94-14.33,31.94-31.94-14.33-31.94-31.94-31.94Z"/><path class="cls-9_profile-analysis-42" d="m403.39,181.19c-10.7,0-21-3.91-29-11l7.81-8.81c5.84,5.18,13.37,8.04,21.18,8.04v11.77Z"/><path class="cls-12_profile-analysis-42 targetColor" d="m447.1,137.48h-11.77c0-17.61-14.33-31.94-31.94-31.94v-11.77c24.1,0,43.71,19.61,43.71,43.71Z" style="fill: rgb(31, 58, 64);"/><path class="cls-11_profile-analysis-42" d="m403.39,181.19v-11.77c17.61,0,31.94-14.33,31.94-31.94h11.77c0,24.1-19.61,43.71-43.71,43.71Z"/><rect class="cls-12_profile-analysis-42 targetColor" x="378.7" y="197.69" width="49.38" height="20.39" style="fill: rgb(31, 58, 64);"/><path class="cls-1_profile-analysis-42" d="m404.35,123.34c.78,0,1.01.27,1.01,1.05v1.65c3.11.44,4.89,1.99,6.21,4.69.41.81.24,1.25-.67,1.65l-1.65.74c-.78.37-1.15.2-1.59-.61-.91-1.76-2.03-2.6-4.32-2.6-2.87,0-4.19.84-4.19,2.77,0,1.25,1.15,2.03,2.33,2.26.57.13,1.38.27,2.43.37,1.89.17,2.83.3,4.49.88.84.3,1.49.64,1.99,1.08.95.88,1.79,2.57,1.79,4.73,0,3.68-2.46,6.18-6.82,6.82v1.75c0,.78-.24,1.05-1.01,1.05h-1.86c-.78,0-1.05-.27-1.05-1.05v-1.72c-3.38-.44-5.64-2.16-6.75-5.2-.27-.74,0-1.25.78-1.55l1.65-.61c.84-.3,1.21-.1,1.59.74.74,1.89,2.26,2.83,4.56,2.83,3.11,0,4.66-.98,4.66-2.97,0-1.05-.47-1.69-1.45-2.09-.98-.37-1.82-.51-3.34-.64-1.86-.17-2.9-.37-4.52-.98-.81-.3-1.45-.68-1.96-1.11-1.01-.91-1.82-2.53-1.82-4.59,0-3.65,2.3-6.08,6.62-6.65v-1.65c0-.78.27-1.05,1.05-1.05h1.86Z"/></g><g id="bars_profile-analysis-42"><rect class="cls-11_profile-analysis-42" x="32.85" y="211.76" width="95.46" height="60.84"/><rect class="cls-9_profile-analysis-42" x="51.68" y="247.34" width="12.95" height="12.95"/><rect class="cls-9_profile-analysis-42" x="73.5" y="233.43" width="12.95" height="26.86"/><rect class="cls-9_profile-analysis-42" x="96.52" y="224.08" width="12.95" height="36.21"/></g><g id="mail_profile-analysis-42"><rect class="cls-8_profile-analysis-42" x="26.39" y="376.81" width="84.79" height="57.8"/><polygon class="cls-6_profile-analysis-42" points="26.39 376.81 68.79 417.37 111.19 376.81 26.39 376.81"/></g></svg>